<?xml version="1.0" encoding="UTF-8" standalone="no"?>
<svg width="2100px" height="2970px" version="1.1" xmlns="http://www.w3.org/2000/svg" xmlns:xlink="http://www.w3.org/1999/xlink" overflow="visible" id="f1e4zbxl">
   <desc>Engraved by Verovio 5.8.0-dev-652fc2c</desc>
   <defs>
      <g id="E050-f1e4zbxl">
         <path transform="scale(1,-1)" d="M441 -245c-23 -4 -48 -6 -76 -6c-59 0 -102 7 -130 20c-88 42 -150 93 -187 154c-26 44 -43 103 -48 176c0 6 -1 13 -1 19c0 54 15 111 45 170c29 57 65 106 110 148s96 85 153 127c-3 16 -8 46 -13 92c-4 43 -5 73 -5 89c0 117 16 172 69 257c34 54 64 82 89 82 c21 0 43 -30 69 -92s39 -115 41 -159v-15c0 -109 -21 -162 -67 -241c-13 -20 -63 -90 -98 -118c-13 -9 -25 -19 -37 -29l31 -181c8 1 18 2 28 2c58 0 102 -12 133 -35c59 -43 92 -104 98 -184c1 -7 1 -15 1 -22c0 -123 -87 -209 -181 -248c8 -57 17 -110 25 -162 c5 -31 6 -58 6 -80c0 -30 -5 -53 -14 -70c-35 -64 -88 -99 -158 -103c-5 0 -11 -1 -16 -1c-37 0 -72 10 -108 27c-50 24 -77 59 -80 105v11c0 29 7 55 20 76c18 28 45 42 79 44h6c49 0 93 -42 97 -87v-9c0 -51 -34 -86 -105 -106c17 -24 51 -36 102 -36c62 0 116 43 140 85 c9 16 13 41 13 74c0 20 -1 42 -5 67c-8 53 -18 106 -26 159zM461 939c-95 0 -135 -175 -135 -286c0 -24 2 -48 5 -71c50 39 92 82 127 128c40 53 60 100 60 140v8c-4 53 -22 81 -55 81h-2zM406 119l54 -326c73 25 110 78 110 161c0 7 0 15 -1 23c-7 95 -57 142 -151 142h-12 zM382 117c-72 -2 -128 -47 -128 -120v-7c2 -46 43 -99 75 -115c-3 -2 -7 -5 -10 -10c-70 33 -116 88 -123 172v11c0 68 44 126 88 159c23 17 49 29 78 36l-29 170c-21 -13 -52 -37 -92 -73c-50 -44 -86 -84 -109 -119c-45 -69 -67 -130 -67 -182v-13c5 -68 35 -127 93 -176 s125 -73 203 -73c25 0 50 3 75 9c-19 111 -36 221 -54 331z" />
      </g>
      <g id="E262-f1e4zbxl">
         <path transform="scale(1,-1)" d="M136 186v169h17v-164l44 14v-91l-44 -14v-165l44 12v-91l-44 -13v-155h-17v150l-76 -22v-155h-17v149l-43 -13v90l43 14v167l-43 -14v92l43 13v169h17v-163zM60 73v-167l76 22v168z" />
      </g>
      <g id="E084-f1e4zbxl">
         <path transform="scale(1,-1)" d="M20 -78c84 97 114 180 134 329h170c-13 -32 -82 -132 -99 -151l-84 -97c-33 -36 -59 -63 -80 -81h162v102l127 123v-225h57v-39h-57v-34c0 -43 19 -65 57 -65v-34h-244v36c48 0 60 26 60 70v27h-203v39z" />
      </g>
      <g id="E0A3-f1e4zbxl">
         <path transform="scale(1,-1)" d="M278 64c0 22 -17 39 -43 39c-12 0 -26 -3 -41 -10c-85 -43 -165 -94 -165 -156c5 -25 15 -32 49 -32c67 11 200 95 200 159zM0 -36c0 68 73 174 200 174c66 0 114 -39 114 -97c0 -84 -106 -173 -218 -173c-64 0 -96 32 -96 96z" />
      </g>
      <g id="E062-f1e4zbxl">
         <path transform="scale(1,-1)" d="M582 -120c0 32 26 58 58 58s58 -26 58 -58s-26 -58 -58 -58s-58 26 -58 58zM582 120c0 32 26 58 58 58s58 -26 58 -58s-26 -58 -58 -58s-58 26 -58 58zM158 96c51 0 73 -14 88 -49l16 -39c0 -17 -2 -30 -7 -40c-3 -11 -10 -21 -19 -31c-17 -18 -49 -43 -84 -43 c-55 0 -77 13 -112 44c-24 21 -35 55 -35 100c0 46 14 81 32 112c30 52 71 79 137 93l36 6l26 2c154 0 235 -68 274 -182c11 -32 18 -68 18 -107c0 -103 -26 -182 -68 -250c-89 -145 -234 -230 -412 -288l-30 -5c-9 0 -14 3 -14 8c3 10 5 11 10 16c35 15 70 30 96 44l78 43 c96 57 162 136 197 258c9 33 17 60 22 100c3 22 5 35 6 39c-7 69 -16 115 -23 140s-4 22 -16 40c-8 12 -19 23 -31 34c-24 21 -62 44 -118 44c-48 0 -84 -8 -113 -28c-28 -19 -42 -44 -42 -73v-16c2 -5 3 -9 4 -11c24 22 52 39 84 39z" />
      </g>
      <g id="E0A2-f1e4zbxl">
         <path transform="scale(1,-1)" d="M198 133c102 0 207 -45 207 -133c0 -92 -118 -133 -227 -133c-101 0 -178 46 -178 133c0 88 93 133 198 133zM293 -21c0 14 -3 29 -8 44c-7 20 -18 38 -33 54c-20 21 -43 31 -68 31l-20 -2c-15 -5 -27 -14 -36 -28c-4 -9 -6 -17 -8 -24s-3 -16 -3 -27c0 -15 3 -34 9 -57 s18 -41 34 -55c15 -15 36 -23 62 -23c4 0 10 1 18 2c19 5 32 15 40 30s13 34 13 55z" />
      </g>
      <g id="E0A4-f1e4zbxl">
         <path transform="scale(1,-1)" d="M0 -39c0 68 73 172 200 172c66 0 114 -37 114 -95c0 -84 -106 -171 -218 -171c-64 0 -96 30 -96 94z" />
      </g>
      <g id="E4E5-f1e4zbxl">
         <path transform="scale(1,-1)" d="M107 292c-13 24 -30 49 -52 71c-1 1 0 2 0 3l-2 2c3 3 4 4 6 4c12 0 26 -7 40 -20s44 -40 89 -81c26 -24 28 -29 46 -47c4 -4 8 -9 10 -14c6 -8 8 -16 8 -27c0 -19 -12 -40 -36 -61c-28 -23 -49 -38 -61 -73c-4 -11 -7 -27 -10 -50c13 -43 34 -83 59 -121 c31 -47 59 -79 101 -129c-8 0 -26 7 -54 20l-62 29l-21 6l-23 1c-25 0 -45 -10 -60 -30l-4 -14l-1 -12c0 -33 20 -56 39 -78c8 -9 17 -18 26 -26c17 -15 27 -24 28 -30l-3 -3c-11 5 -19 10 -25 15c-9 3 -37 21 -45 26c-24 14 -45 32 -63 51c-19 21 -37 44 -37 71 c0 63 27 95 80 95c41 0 86 -18 136 -52c-19 26 -37 48 -55 66c-23 23 -48 44 -73 65c-28 23 -47 40 -58 53s-17 26 -18 39c75 64 113 125 113 183c0 27 -7 48 -18 68z" />
      </g>
      <g id="E4E4-f1e4zbxl">
         <path transform="scale(1,-1)" d="M0 10v105c0 9 1 10 10 10h280c9 0 10 -1 10 -10v-105c0 -9 -1 -10 -10 -10h-280c-9 0 -10 1 -10 10z" />
      </g>
   </defs>
   <style type="text/css">#f1e4zbxl g.ending, #f1e4zbxl g.fing, #f1e4zbxl g.reh, #f1e4zbxl g.tempo {font-weight:bold;}#f1e4zbxl g.dir, #f1e4zbxl g.dynam, #f1e4zbxl g.mNum {font-style:italic;}#f1e4zbxl g.label {font-weight:normal;}#f1e4zbxl ellipse, #f1e4zbxl path, #f1e4zbxl polygon, #f1e4zbxl polyline, #f1e4zbxl rect {stroke:currentColor}</style>
   <svg class="definition-scale" color="black" font-family="Times, serif" viewBox="0 0 21000 29700">
      <g class="page-margin" transform="translate(500, 500)">
         <g id="g1ha195l" class="mdiv pageMilestone" />
         <g id="h1073m6b" class="score pageMilestone" />
         <g id="a19gfx15" class="system">
            <path d="M13 1266 L13 3786" stroke-width="27" />
            <g id="cnr12jf" class="grpSym">
               <path d="M-72,3768 C-432,3228 18,2706 -252,2526 C81,2706 -369,3228 -72,3768" stroke-width="18" stroke-linecap="round" stroke-linejoin="round" />
               <path d="M-72,1284 C-369,1824 81,2346 -252,2526 C18,2346 -432,1824 -72,1284" stroke-width="18" stroke-linecap="round" stroke-linejoin="round" />
            </g>
            <g id="i6sxeju" class="section systemMilestone" />
            <g id="j1iyt3ei" class="measure">
               <g id="s1h3efml" class="staff">
                  <path d="M0 1266 L3806 1266" stroke-width="13" />
                  <path d="M0 1446 L3806 1446" stroke-width="13" />
                  <path d="M0 1626 L3806 1626" stroke-width="13" />
                  <path d="M0 1806 L3806 1806" stroke-width="13" />
                  <path d="M0 1986 L3806 1986" stroke-width="13" />
                  <g id="a1ol6cj6" class="clef">
                     <use xlink:href="#E050-f1e4zbxl" transform="translate(117, 1806) scale(0.72, 0.72)" />
                  </g>
                  <g id="bebkryj" class="keySig">
                     <g id="c11a0ld7" class="keyAccid">
                        <use xlink:href="#E262-f1e4zbxl" transform="translate(798, 1896) scale(0.72, 0.72)" />
                     </g>
                  </g>
                  <g id="d12c19tm" class="meterSig">
                     <use xlink:href="#E084-f1e4zbxl" transform="translate(1105, 1446) scale(0.72, 0.72)" />
                     <use xlink:href="#E084-f1e4zbxl" transform="translate(1105, 1806) scale(0.72, 0.72)" />
                  </g>
                  <g id="th9dd5q" class="layer">
                     <g id="n001" class="note">
                        <g class="notehead">
                           <use xlink:href="#E0A3-f1e4zbxl" transform="translate(1676, 1986) scale(0.72, 0.72)" />
                        </g>
                        <g id="fqw6e28" class="stem">
                           <path d="M1893 1958 L1893 1356" stroke-width="18" />
                        </g>
                     </g>
                     <g id="v14t03zj" class="note">
                        <g class="notehead">
                           <use xlink:href="#E0A3-f1e4zbxl" transform="translate(2735, 1986) scale(0.72, 0.72)" />
                        </g>
                        <g id="go5ha9t" class="stem">
                           <path d="M2952 1958 L2952 1356" stroke-width="18" />
                        </g>
                     </g>
                  </g>
               </g>
               <g id="w1qqim1f" class="staff">
                  <path d="M0 3066 L3806 3066" stroke-width="13" />
                  <path d="M0 3246 L3806 3246" stroke-width="13" />
                  <path d="M0 3426 L3806 3426" stroke-width="13" />
                  <path d="M0 3606 L3806 3606" stroke-width="13" />
                  <path d="M0 3786 L3806 3786" stroke-width="13" />
                  <g id="e1bfaz3d" class="clef">
                     <use xlink:href="#E062-f1e4zbxl" transform="translate(117, 3246) scale(0.72, 0.72)" />
                  </g>
                  <g id="fs9cz45" class="keySig">
                     <g id="g1mvoymn" class="keyAccid">
                        <use xlink:href="#E262-f1e4zbxl" transform="translate(798, 3246) scale(0.72, 0.72)" />
                     </g>
                  </g>
                  <g id="hlftaaw" class="meterSig">
                     <use xlink:href="#E084-f1e4zbxl" transform="translate(1105, 3246) scale(0.72, 0.72)" />
                     <use xlink:href="#E084-f1e4zbxl" transform="translate(1105, 3606) scale(0.72, 0.72)" />
                  </g>
                  <g id="x1bwo19o" class="layer">
                     <g id="n002" class="note">
                        <g class="notehead">
                           <use xlink:href="#E0A3-f1e4zbxl" transform="translate(1676, 3336) scale(0.72, 0.72)" />
                        </g>
                        <g id="h1t58klx" class="stem">
                           <path d="M1685 3361 L1685 3966" stroke-width="18" />
                        </g>
                     </g>
                     <g id="z1ta27m4" class="note">
                        <g class="notehead">
                           <use xlink:href="#E0A3-f1e4zbxl" transform="translate(2735, 3336) scale(0.72, 0.72)" />
                        </g>
                        <g id="i1t0duti" class="stem">
                           <path d="M2744 3361 L2744 3966" stroke-width="18" />
                        </g>
                     </g>
                  </g>
               </g>
               <g id="a1t7ius5" class="fing">
                  <text x="1789" y="1156" text-anchor="middle" font-size="0px">
                     <tspan id="b1xxcsud" class="text">
                        <tspan font-size="303px">1</tspan>
                     </tspan>
                  </text>
               </g>
               <g id="c1b1yg41" class="fing">
                  <text x="1789" y="2956" text-anchor="middle" font-size="0px">
                     <tspan id="d13kktla" class="text">
                        <tspan font-size="303px">5</tspan>
                     </tspan>
                  </text>
               </g>
               <g id="rf3c735" class="barLine">
                  <path d="M3793 1266 L3793 1986" stroke-width="27" />
                  <path d="M3793 3066 L3793 3786" stroke-width="27" />
               </g>
            </g>
            <g id="egmssyl" class="measure">
               <g id="n1vu5e2y" class="staff">
                  <path d="M3806 1266 L6125 1266" stroke-width="13" />
                  <path d="M3806 1446 L6125 1446" stroke-width="13" />
                  <path d="M3806 1626 L6125 1626" stroke-width="13" />
                  <path d="M3806 1806 L6125 1806" stroke-width="13" />
                  <path d="M3806 1986 L6125 1986" stroke-width="13" />
                  <g id="o1co1ox0" class="layer">
                     <g id="p9g3u17" class="note">
                        <g class="notehead">
                           <use xlink:href="#E0A3-f1e4zbxl" transform="translate(3995, 1986) scale(0.72, 0.72)" />
                        </g>
                        <g id="jxdx73s" class="stem">
                           <path d="M4212 1958 L4212 1356" stroke-width="18" />
                        </g>
                     </g>
                     <g id="qc7pd7a" class="note">
                        <g class="notehead">
                           <use xlink:href="#E0A3-f1e4zbxl" transform="translate(5054, 1896) scale(0.72, 0.72)" />
                        </g>
                        <g id="ku9ptt3" class="stem">
                           <path d="M5271 1868 L5271 1266" stroke-width="18" />
                        </g>
                     </g>
                  </g>
               </g>
               <g id="rd031ce" class="slur">
                  <path d="M3995,2171 C4700,2441 5607,2421 6313,2098 C5622,2480 4689,2500 3995,2171" stroke-width="9" stroke-linecap="round" stroke-linejoin="round" />
               </g>
               <g id="s1v5pwcu" class="staff">
                  <path d="M3806 3066 L6125 3066" stroke-width="13" />
                  <path d="M3806 3246 L6125 3246" stroke-width="13" />
                  <path d="M3806 3426 L6125 3426" stroke-width="13" />
                  <path d="M3806 3606 L6125 3606" stroke-width="13" />
                  <path d="M3806 3786 L6125 3786" stroke-width="13" />
                  <g id="tc0ota7" class="layer">
                     <g id="u1uo7gxn" class="note">
                        <g class="notehead">
                           <use xlink:href="#E0A3-f1e4zbxl" transform="translate(3995, 3336) scale(0.72, 0.72)" />
                        </g>
                        <g id="ly7w6yi" class="stem">
                           <path d="M4004 3361 L4004 3966" stroke-width="18" />
                        </g>
                     </g>
                     <g id="vqdliwh" class="note">
                        <g class="notehead">
                           <use xlink:href="#E0A3-f1e4zbxl" transform="translate(5054, 3246) scale(0.72, 0.72)" />
                        </g>
                        <g id="m1vp3b78" class="stem">
                           <path d="M5063 3271 L5063 3876" stroke-width="18" />
                        </g>
                     </g>
                  </g>
               </g>
               <g id="w4dql18" class="slur">
                  <path d="M3995,2953 C4688,2598 5620,2599 6314,2953 C5607,2658 4701,2657 3995,2953" stroke-width="9" stroke-linecap="round" stroke-linejoin="round" />
               </g>
               <g id="m1pqg0pw" class="barLine">
                  <path d="M6112 1266 L6112 1986" stroke-width="27" />
                  <path d="M6112 3066 L6112 3786" stroke-width="27" />
               </g>
            </g>
            <g id="x13mk5hd" class="measure">
               <g id="g1r9gt59" class="staff">
                  <path d="M6125 1266 L8444 1266" stroke-width="13" />
                  <path d="M6125 1446 L8444 1446" stroke-width="13" />
                  <path d="M6125 1626 L8444 1626" stroke-width="13" />
                  <path d="M6125 1806 L8444 1806" stroke-width="13" />
                  <path d="M6125 1986 L8444 1986" stroke-width="13" />
                  <g id="ho73vrl" class="layer">
                     <g id="ia8sdiw" class="note">
                        <g class="notehead">
                           <use xlink:href="#E0A3-f1e4zbxl" transform="translate(6314, 1806) scale(0.72, 0.72)" />
                        </g>
                        <g id="nb98bn7" class="stem">
                           <path d="M6531 1778 L6531 1176" stroke-width="18" />
                        </g>
                     </g>
                     <g id="jx79xel" class="note">
                        <g class="notehead">
                           <use xlink:href="#E0A3-f1e4zbxl" transform="translate(7373, 1806) scale(0.72, 0.72)" />
                        </g>
                        <g id="orp030l" class="stem">
                           <path d="M7590 1778 L7590 1176" stroke-width="18" />
                        </g>
                     </g>
                  </g>
               </g>
               <g id="krw3l2u" class="staff">
                  <path d="M6125 3066 L8444 3066" stroke-width="13" />
                  <path d="M6125 3246 L8444 3246" stroke-width="13" />
                  <path d="M6125 3426 L8444 3426" stroke-width="13" />
                  <path d="M6125 3606 L8444 3606" stroke-width="13" />
                  <path d="M6125 3786 L8444 3786" stroke-width="13" />
                  <g id="lfnegfo" class="layer">
                     <g id="m1sq0onz" class="note">
                        <g class="notehead">
                           <use xlink:href="#E0A3-f1e4zbxl" transform="translate(6314, 3156) scale(0.72, 0.72)" />
                        </g>
                        <g id="p1uwjnvx" class="stem">
                           <path d="M6323 3181 L6323 3786" stroke-width="18" />
                        </g>
                     </g>
                     <g id="n1jdgiq4" class="note">
                        <g class="notehead">
                           <use xlink:href="#E0A3-f1e4zbxl" transform="translate(7373, 3156) scale(0.72, 0.72)" />
                        </g>
                        <g id="q1p14v98" class="stem">
                           <path d="M7382 3181 L7382 3786" stroke-width="18" />
                        </g>
                     </g>
                  </g>
               </g>
               <g id="fy1fox7" class="barLine">
                  <path d="M8431 1266 L8431 1986" stroke-width="27" />
                  <path d="M8431 3066 L8431 3786" stroke-width="27" />
               </g>
            </g>
            <g id="o1mvn7rk" class="measure">
               <g id="x91jp0h" class="staff">
                  <path d="M8444 1266 L10763 1266" stroke-width="13" />
                  <path d="M8444 1446 L10763 1446" stroke-width="13" />
                  <path d="M8444 1626 L10763 1626" stroke-width="13" />
                  <path d="M8444 1806 L10763 1806" stroke-width="13" />
                  <path d="M8444 1986 L10763 1986" stroke-width="13" />
                  <g id="y1y6ov39" class="layer">
                     <g id="zqbegay" class="note">
                        <g class="notehead">
                           <use xlink:href="#E0A3-f1e4zbxl" transform="translate(8633, 1806) scale(0.72, 0.72)" />
                        </g>
                        <g id="r1sj8455" class="stem">
                           <path d="M8850 1778 L8850 1176" stroke-width="18" />
                        </g>
                     </g>
                     <g id="a1pfq415" class="note">
                        <g class="notehead">
                           <use xlink:href="#E0A3-f1e4zbxl" transform="translate(9692, 1716) scale(0.72, 0.72)" />
                        </g>
                        <g id="s1t84xfm" class="stem">
                           <path d="M9909 1688 L9909 1086" stroke-width="18" />
                        </g>
                     </g>
                  </g>
               </g>
               <g id="bzef9wb" class="slur">
                  <path d="M8633,2098 C9339,2395 10245,2394 10952,2098 C10258,2453 9326,2454 8633,2098" stroke-width="9" stroke-linecap="round" stroke-linejoin="round" />
               </g>
               <g id="clijhlc" class="staff">
                  <path d="M8444 3066 L10763 3066" stroke-width="13" />
                  <path d="M8444 3246 L10763 3246" stroke-width="13" />
                  <path d="M8444 3426 L10763 3426" stroke-width="13" />
                  <path d="M8444 3606 L10763 3606" stroke-width="13" />
                  <path d="M8444 3786 L10763 3786" stroke-width="13" />
                  <g id="d1vqa2xi" class="layer">
                     <g id="e13va0lq" class="note">
                        <g class="notehead">
                           <use xlink:href="#E0A3-f1e4zbxl" transform="translate(8633, 3156) scale(0.72, 0.72)" />
                        </g>
                        <g id="t93y373" class="stem">
                           <path d="M8642 3181 L8642 3786" stroke-width="18" />
                        </g>
                     </g>
                     <g id="fquyby6" class="note">
                        <g class="notehead">
                           <use xlink:href="#E0A3-f1e4zbxl" transform="translate(9692, 3066) scale(0.72, 0.72)" />
                        </g>
                        <g id="uykdwww" class="stem">
                           <path d="M9701 3091 L9701 3696" stroke-width="18" />
                        </g>
                     </g>
                  </g>
               </g>
               <g id="gp36r73" class="slur">
                  <path d="M8633,2773 C9390,2410 10339,2410 11097,2773 C10326,2469 9403,2469 8633,2773" stroke-width="9" stroke-linecap="round" stroke-linejoin="round" />
               </g>
               <g id="wb7syyq" class="barLine">
                  <path d="M10750 1266 L10750 1986" stroke-width="27" />
                  <path d="M10750 3066 L10750 3786" stroke-width="27" />
               </g>
            </g>
            <g id="h1my1f92" class="measure">
               <g id="q1i8gneo" class="staff">
                  <path d="M10763 1266 L12568 1266" stroke-width="13" />
                  <path d="M10763 1446 L12568 1446" stroke-width="13" />
                  <path d="M10763 1626 L12568 1626" stroke-width="13" />
                  <path d="M10763 1806 L12568 1806" stroke-width="13" />
                  <path d="M10763 1986 L12568 1986" stroke-width="13" />
                  <g id="r14pvkx2" class="layer">
                     <g id="srugvl8" class="note">
                        <g class="notehead">
                           <use xlink:href="#E0A2-f1e4zbxl" transform="translate(10952, 1626) scale(0.72, 0.72)" />
                        </g>
                     </g>
                  </g>
               </g>
               <g id="tnr4ec1" class="staff">
                  <path d="M10763 3066 L12568 3066" stroke-width="13" />
                  <path d="M10763 3246 L12568 3246" stroke-width="13" />
                  <path d="M10763 3426 L12568 3426" stroke-width="13" />
                  <path d="M10763 3606 L12568 3606" stroke-width="13" />
                  <path d="M10763 3786 L12568 3786" stroke-width="13" />
                  <g id="uoeccsz" class="layer">
                     <g id="abc" class="note">
                        <g class="notehead">
                           <use xlink:href="#E0A2-f1e4zbxl" transform="translate(10952, 2976) scale(0.72, 0.72)" />
                        </g>
                     </g>
                  </g>
               </g>
               <g id="py12bja" class="barLine">
                  <path d="M12555 1266 L12555 1986" stroke-width="27" />
                  <path d="M12555 3066 L12555 3786" stroke-width="27" />
               </g>
            </g>
            <g id="w6adw4o" class="measure">
               <g id="f9ckpxw" class="staff">
                  <path d="M12568 1266 L14373 1266" stroke-width="13" />
                  <path d="M12568 1446 L14373 1446" stroke-width="13" />
                  <path d="M12568 1626 L14373 1626" stroke-width="13" />
                  <path d="M12568 1806 L14373 1806" stroke-width="13" />
                  <path d="M12568 1986 L14373 1986" stroke-width="13" />
                  <g id="g177oz8n" class="layer">
                     <g id="heoiyqp" class="note">
                        <g class="notehead">
                           <use xlink:href="#E0A2-f1e4zbxl" transform="translate(12757, 1626) scale(0.72, 0.72)" />
                        </g>
                     </g>
                  </g>
               </g>
               <g id="iog3dmd" class="staff">
                  <path d="M12568 3066 L14373 3066" stroke-width="13" />
                  <path d="M12568 3246 L14373 3246" stroke-width="13" />
                  <path d="M12568 3426 L14373 3426" stroke-width="13" />
                  <path d="M12568 3606 L14373 3606" stroke-width="13" />
                  <path d="M12568 3786 L14373 3786" stroke-width="13" />
                  <g id="j1jkvciw" class="layer">
                     <g id="abc" class="note">
                        <g class="notehead">
                           <use xlink:href="#E0A2-f1e4zbxl" transform="translate(12757, 2976) scale(0.72, 0.72)" />
                        </g>
                     </g>
                  </g>
               </g>
               <g id="elgl5ut" class="barLine">
                  <path d="M14360 1266 L14360 1986" stroke-width="27" />
                  <path d="M14360 3066 L14360 3786" stroke-width="27" />
               </g>
            </g>
            <g id="l1yn0gm9" class="measure">
               <g id="umtm3je" class="staff">
                  <path d="M14373 1266 L17355 1266" stroke-width="13" />
                  <path d="M14373 1446 L17355 1446" stroke-width="13" />
                  <path d="M14373 1626 L17355 1626" stroke-width="13" />
                  <path d="M14373 1806 L17355 1806" stroke-width="13" />
                  <path d="M14373 1986 L17355 1986" stroke-width="13" />
                  <g id="ve3yn2u" class="layer">
                     <g id="w48ncs3" class="note">
                        <g class="notehead">
                           <use xlink:href="#E0A4-f1e4zbxl" transform="translate(14562, 1626) scale(0.72, 0.72)" />
                        </g>
                        <g id="z10juc3m" class="stem">
                           <path d="M14571 1654 L14571 2226" stroke-width="18" />
                        </g>
                     </g>
                     <g id="x1icmjhc" class="note">
                        <g class="notehead">
                           <use xlink:href="#E0A4-f1e4zbxl" transform="translate(15257, 1716) scale(0.72, 0.72)" />
                        </g>
                        <g id="aano1bt" class="stem">
                           <path d="M15474 1688 L15474 1086" stroke-width="18" />
                        </g>
                     </g>
                     <g id="y191j9xe" class="note">
                        <g class="notehead">
                           <use xlink:href="#E0A4-f1e4zbxl" transform="translate(15952, 1806) scale(0.72, 0.72)" />
                        </g>
                        <g id="bj0fjph" class="stem">
                           <path d="M16169 1778 L16169 1176" stroke-width="18" />
                        </g>
                     </g>
                     <g id="z169qvge" class="note">
                        <g class="notehead">
                           <use xlink:href="#E0A4-f1e4zbxl" transform="translate(16647, 1896) scale(0.72, 0.72)" />
                        </g>
                        <g id="c18x1c1g" class="stem">
                           <path d="M16864 1868 L16864 1266" stroke-width="18" />
                        </g>
                     </g>
                  </g>
               </g>
               <g id="a1r2r3a5" class="staff">
                  <path d="M14373 3066 L17355 3066" stroke-width="13" />
                  <path d="M14373 3246 L17355 3246" stroke-width="13" />
                  <path d="M14373 3426 L17355 3426" stroke-width="13" />
                  <path d="M14373 3606 L17355 3606" stroke-width="13" />
                  <path d="M14373 3786 L17355 3786" stroke-width="13" />
                  <g id="bzbnzva" class="layer">
                     <g id="c3vfqyz" class="note">
                        <g class="notehead">
                           <use xlink:href="#E0A4-f1e4zbxl" transform="translate(14562, 2976) scale(0.72, 0.72)" />
                        </g>
                        <g id="dlig4ew" class="stem">
                           <path d="M14571 3004 L14571 3606" stroke-width="18" />
                        </g>
                     </g>
                     <g id="d14wo4c7" class="note">
                        <g class="notehead">
                           <use xlink:href="#E0A4-f1e4zbxl" transform="translate(15257, 3066) scale(0.72, 0.72)" />
                        </g>
                        <g id="e18wrfm4" class="stem">
                           <path d="M15266 3094 L15266 3696" stroke-width="18" />
                        </g>
                     </g>
                     <g id="eygj5hj" class="note">
                        <g class="notehead">
                           <use xlink:href="#E0A4-f1e4zbxl" transform="translate(15952, 3156) scale(0.72, 0.72)" />
                        </g>
                        <g id="f1m1g0nl" class="stem">
                           <path d="M15961 3184 L15961 3786" stroke-width="18" />
                        </g>
                     </g>
                     <g id="f95rrdk" class="note">
                        <g class="notehead">
                           <use xlink:href="#E0A4-f1e4zbxl" transform="translate(16647, 3246) scale(0.72, 0.72)" />
                        </g>
                        <g id="g1mprvad" class="stem">
                           <path d="M16656 3274 L16656 3876" stroke-width="18" />
                        </g>
                     </g>
                  </g>
               </g>
               <g id="t5wzbou" class="barLine">
                  <path d="M17342 1266 L17342 1986" stroke-width="27" />
                  <path d="M17342 3066 L17342 3786" stroke-width="27" />
               </g>
            </g>
            <g id="g15fxnab" class="measure">
               <g id="prlqzk8" class="staff">
                  <path d="M17355 1266 L20005 1266" stroke-width="13" />
                  <path d="M17355 1446 L20005 1446" stroke-width="13" />
                  <path d="M17355 1626 L20005 1626" stroke-width="13" />
                  <path d="M17355 1806 L20005 1806" stroke-width="13" />
                  <path d="M17355 1986 L20005 1986" stroke-width="13" />
                  <g id="quuixx2" class="layer">
                     <g id="r10h9x8i" class="note">
                        <g class="notehead">
                           <use xlink:href="#E0A4-f1e4zbxl" transform="translate(17544, 1986) scale(0.72, 0.72)" />
                        </g>
                        <g id="hvguq83" class="stem">
                           <path d="M17761 1958 L17761 1356" stroke-width="18" />
                        </g>
                     </g>
                     <g id="sojoiyj" class="rest">
                        <use xlink:href="#E4E5-f1e4zbxl" transform="translate(18239, 1626) scale(0.72, 0.72)" />
                     </g>
                     <g id="t1o0aouk" class="rest">
                        <use xlink:href="#E4E4-f1e4zbxl" transform="translate(18934, 1626) scale(0.72, 0.72)" />
                        <g class="ledgerLines" />
                     </g>
                  </g>
               </g>
               <g id="u1ijtjhe" class="staff">
                  <path d="M17355 3066 L20005 3066" stroke-width="13" />
                  <path d="M17355 3246 L20005 3246" stroke-width="13" />
                  <path d="M17355 3426 L20005 3426" stroke-width="13" />
                  <path d="M17355 3606 L20005 3606" stroke-width="13" />
                  <path d="M17355 3786 L20005 3786" stroke-width="13" />
                  <g id="v1xecf8o" class="layer">
                     <g id="w1fft2xt" class="note">
                        <g class="notehead">
                           <use xlink:href="#E0A4-f1e4zbxl" transform="translate(17544, 3336) scale(0.72, 0.72)" />
                        </g>
                        <g id="i15ue1jr" class="stem">
                           <path d="M17553 3364 L17553 3966" stroke-width="18" />
                        </g>
                     </g>
                     <g id="xnsu2ym" class="rest">
                        <use xlink:href="#E4E5-f1e4zbxl" transform="translate(18239, 3426) scale(0.72, 0.72)" />
                     </g>
                     <g id="yccuwzz" class="rest">
                        <use xlink:href="#E4E4-f1e4zbxl" transform="translate(18934, 3426) scale(0.72, 0.72)" />
                        <g class="ledgerLines" />
                     </g>
                  </g>
               </g>
               <g id="oqd2e41" class="barLine">
                  <path d="M19992 1266 L19992 1986" stroke-width="27" />
                  <path d="M19992 3066 L19992 3786" stroke-width="27" />
               </g>
            </g>
            <g id="z7ztt8g" class="sb" />
         </g>
         <g id="d1ngpacv" class="system">
            <path d="M13 5226 L13 7746" stroke-width="27" />
            <g id="m1y2e7me" class="grpSym">
               <path d="M-72,7728 C-432,7188 18,6666 -252,6486 C81,6666 -369,7188 -72,7728" stroke-width="18" stroke-linecap="round" stroke-linejoin="round" />
               <path d="M-72,5244 C-369,5784 81,6306 -252,6486 C18,6306 -432,5784 -72,5244" stroke-width="18" stroke-linecap="round" stroke-linejoin="round" />
            </g>
            <g id="a18ckc01" class="measure">
               <g id="haepxwl" class="mNum autogenerated">
                  <text y="4983" text-anchor="middle" font-size="0px">
                     <tspan id="i1q3p5zf" class="text">
                        <tspan font-size="324px">9</tspan>
                     </tspan>
                  </text>
               </g>
               <g id="jswi7ij" class="staff">
                  <path d="M0 5226 L3385 5226" stroke-width="13" />
                  <path d="M0 5406 L3385 5406" stroke-width="13" />
                  <path d="M0 5586 L3385 5586" stroke-width="13" />
                  <path d="M0 5766 L3385 5766" stroke-width="13" />
                  <path d="M0 5946 L3385 5946" stroke-width="13" />
                  <g id="k19xw1jg" class="clef">
                     <use xlink:href="#E050-f1e4zbxl" transform="translate(117, 5766) scale(0.72, 0.72)" />
                  </g>
                  <g id="log1odt" class="keySig">
                     <g id="m163ekzu" class="keyAccid">
                        <use xlink:href="#E262-f1e4zbxl" transform="translate(798, 5856) scale(0.72, 0.72)" />
                     </g>
                  </g>
                  <g id="k9z2moo" class="layer">
                     <g id="n003" class="note">
                        <g class="notehead">
                           <use xlink:href="#E0A3-f1e4zbxl" transform="translate(1221, 5676) scale(0.72, 0.72)" />
                        </g>
                        <g id="jxz7zq8" class="stem">
                           <path d="M1438 5648 L1438 5046" stroke-width="18" />
                        </g>
                     </g>
                     <g id="mgp2tmc" class="note">
                        <g class="notehead">
                           <use xlink:href="#E0A3-f1e4zbxl" transform="translate(2297, 5676) scale(0.72, 0.72)" />
                        </g>
                        <g id="kdiv568" class="stem">
                           <path d="M2514 5648 L2514 5046" stroke-width="18" />
                        </g>
                     </g>
                  </g>
               </g>
               <g id="nxyrn7h" class="staff">
                  <path d="M0 7026 L3385 7026" stroke-width="13" />
                  <path d="M0 7206 L3385 7206" stroke-width="13" />
                  <path d="M0 7386 L3385 7386" stroke-width="13" />
                  <path d="M0 7566 L3385 7566" stroke-width="13" />
                  <path d="M0 7746 L3385 7746" stroke-width="13" />
                  <g id="n80x0yq" class="clef">
                     <use xlink:href="#E062-f1e4zbxl" transform="translate(117, 7206) scale(0.72, 0.72)" />
                  </g>
                  <g id="oktj8gw" class="keySig">
                     <g id="psnyt05" class="keyAccid">
                        <use xlink:href="#E262-f1e4zbxl" transform="translate(798, 7206) scale(0.72, 0.72)" />
                     </g>
                  </g>
                  <g id="o1x56wyj" class="layer">
                     <g id="n004" class="note">
                        <g class="notehead">
                           <use xlink:href="#E0A3-f1e4zbxl" transform="translate(1221, 7026) scale(0.72, 0.72)" />
                        </g>
                        <g id="l12pcfz8" class="stem">
                           <path d="M1230 7051 L1230 7656" stroke-width="18" />
                        </g>
                     </g>
                     <g id="q2m31ni" class="note">
                        <g class="notehead">
                           <use xlink:href="#E0A3-f1e4zbxl" transform="translate(2297, 7026) scale(0.72, 0.72)" />
                        </g>
                        <g id="mrddy8g" class="stem">
                           <path d="M2306 7051 L2306 7656" stroke-width="18" />
                        </g>
                     </g>
                  </g>
               </g>
               <g id="r1kk73gg" class="fing">
                  <text x="1334" y="5116" text-anchor="middle" font-size="0px">
                     <tspan id="swjt241" class="text">
                        <tspan font-size="303px">5</tspan>
                     </tspan>
                  </text>
               </g>
               <g id="ti95v6i" class="fing">
                  <text x="1334" y="6817" text-anchor="middle" font-size="0px">
                     <tspan id="u5ikvq6" class="text">
                        <tspan font-size="303px">1</tspan>
                     </tspan>
                  </text>
               </g>
               <g id="i1aja74t" class="barLine">
                  <path d="M3372 5226 L3372 5946" stroke-width="27" />
                  <path d="M3372 7026 L3372 7746" stroke-width="27" />
               </g>
            </g>
            <g id="v1phne3h" class="measure">
               <g id="e1588uvp" class="staff">
                  <path d="M3385 5226 L5741 5226" stroke-width="13" />
                  <path d="M3385 5406 L5741 5406" stroke-width="13" />
                  <path d="M3385 5586 L5741 5586" stroke-width="13" />
                  <path d="M3385 5766 L5741 5766" stroke-width="13" />
                  <path d="M3385 5946 L5741 5946" stroke-width="13" />
                  <g id="f1j8beyi" class="layer">
                     <g id="g1ssu48f" class="note">
                        <g class="notehead">
                           <use xlink:href="#E0A3-f1e4zbxl" transform="translate(3577, 5676) scale(0.72, 0.72)" />
                        </g>
                        <g id="nd2xev9" class="stem">
                           <path d="M3794 5648 L3794 5046" stroke-width="18" />
                        </g>
                     </g>
                     <g id="ht0bfc" class="note">
                        <g class="notehead">
                           <use xlink:href="#E0A3-f1e4zbxl" transform="translate(4653, 5766) scale(0.72, 0.72)" />
                        </g>
                        <g id="ow00bg3" class="stem">
                           <path d="M4870 5738 L4870 5136" stroke-width="18" />
                        </g>
                     </g>
                  </g>
               </g>
               <g id="iwjjbgq" class="slur">
                  <path d="M3577,6058 C4299,6357 5210,6357 5933,6058 C5223,6416 4286,6416 3577,6058" stroke-width="9" stroke-linecap="round" stroke-linejoin="round" />
               </g>
               <g id="j8cywmj" class="staff">
                  <path d="M3385 7026 L5741 7026" stroke-width="13" />
                  <path d="M3385 7206 L5741 7206" stroke-width="13" />
                  <path d="M3385 7386 L5741 7386" stroke-width="13" />
                  <path d="M3385 7566 L5741 7566" stroke-width="13" />
                  <path d="M3385 7746 L5741 7746" stroke-width="13" />
                  <g id="k7v5x05" class="layer">
                     <g id="l14yxmti" class="note">
                        <g class="notehead">
                           <use xlink:href="#E0A3-f1e4zbxl" transform="translate(3577, 7026) scale(0.72, 0.72)" />
                        </g>
                        <g id="pd0v3kv" class="stem">
                           <path d="M3586 7051 L3586 7656" stroke-width="18" />
                        </g>
                     </g>
                     <g id="m19snl70" class="note">
                        <g class="notehead">
                           <use xlink:href="#E0A3-f1e4zbxl" transform="translate(4653, 7116) scale(0.72, 0.72)" />
                        </g>
                        <g id="q1dcoo5i" class="stem">
                           <path d="M4662 7141 L4662 7746" stroke-width="18" />
                        </g>
                     </g>
                  </g>
               </g>
               <g id="n1seyngp" class="slur">
                  <path d="M3577,6837 C4288,6506 5225,6528 5932,6912 C5210,6587 4299,6565 3577,6837" stroke-width="9" stroke-linecap="round" stroke-linejoin="round" />
               </g>
               <g id="dgl34ab" class="barLine">
                  <path d="M5728 5226 L5728 5946" stroke-width="27" />
                  <path d="M5728 7026 L5728 7746" stroke-width="27" />
               </g>
            </g>
            <g id="o1086z9z" class="measure">
               <g id="x13kx5ne" class="staff">
                  <path d="M5741 5226 L8097 5226" stroke-width="13" />
                  <path d="M5741 5406 L8097 5406" stroke-width="13" />
                  <path d="M5741 5586 L8097 5586" stroke-width="13" />
                  <path d="M5741 5766 L8097 5766" stroke-width="13" />
                  <path d="M5741 5946 L8097 5946" stroke-width="13" />
                  <g id="ybham51" class="layer">
                     <g id="zrm0z2n" class="note">
                        <g class="notehead">
                           <use xlink:href="#E0A3-f1e4zbxl" transform="translate(5933, 5856) scale(0.72, 0.72)" />
                        </g>
                        <g id="r1pugkn3" class="stem">
                           <path d="M6150 5828 L6150 5226" stroke-width="18" />
                        </g>
                     </g>
                     <g id="axvxxjf" class="note">
                        <g class="notehead">
                           <use xlink:href="#E0A3-f1e4zbxl" transform="translate(7009, 5856) scale(0.72, 0.72)" />
                        </g>
                        <g id="sftm36j" class="stem">
                           <path d="M7226 5828 L7226 5226" stroke-width="18" />
                        </g>
                     </g>
                  </g>
               </g>
               <g id="bqose8j" class="staff">
                  <path d="M5741 7026 L8097 7026" stroke-width="13" />
                  <path d="M5741 7206 L8097 7206" stroke-width="13" />
                  <path d="M5741 7386 L8097 7386" stroke-width="13" />
                  <path d="M5741 7566 L8097 7566" stroke-width="13" />
                  <path d="M5741 7746 L8097 7746" stroke-width="13" />
                  <g id="c1vz3a3z" class="layer">
                     <g id="d1ob9jto" class="note">
                        <g class="notehead">
                           <use xlink:href="#E0A3-f1e4zbxl" transform="translate(5933, 7206) scale(0.72, 0.72)" />
                        </g>
                        <g id="t11ro2m8" class="stem">
                           <path d="M5942 7231 L5942 7836" stroke-width="18" />
                        </g>
                     </g>
                     <g id="e1iuejct" class="note">
                        <g class="notehead">
                           <use xlink:href="#E0A3-f1e4zbxl" transform="translate(7009, 7206) scale(0.72, 0.72)" />
                        </g>
                        <g id="ur4jtgi" class="stem">
                           <path d="M7018 7231 L7018 7836" stroke-width="18" />
                        </g>
                     </g>
                  </g>
               </g>
               <g id="wr3vqcz" class="barLine">
                  <path d="M8084 5226 L8084 5946" stroke-width="27" />
                  <path d="M8084 7026 L8084 7746" stroke-width="27" />
               </g>
            </g>
            <g id="f1xx8zku" class="measure">
               <g id="o3vn1x4" class="staff">
                  <path d="M8097 5226 L10453 5226" stroke-width="13" />
                  <path d="M8097 5406 L10453 5406" stroke-width="13" />
                  <path d="M8097 5586 L10453 5586" stroke-width="13" />
                  <path d="M8097 5766 L10453 5766" stroke-width="13" />
                  <path d="M8097 5946 L10453 5946" stroke-width="13" />
                  <g id="p18d97l4" class="layer">
                     <g id="q1y946eh" class="note">
                        <g class="notehead">
                           <use xlink:href="#E0A3-f1e4zbxl" transform="translate(8289, 5856) scale(0.72, 0.72)" />
                        </g>
                        <g id="v15rtyt9" class="stem">
                           <path d="M8506 5828 L8506 5226" stroke-width="18" />
                        </g>
                     </g>
                     <g id="r10q63pe" class="note">
                        <g class="notehead">
                           <use xlink:href="#E0A3-f1e4zbxl" transform="translate(9365, 5946) scale(0.72, 0.72)" />
                        </g>
                        <g id="w1lxip3j" class="stem">
                           <path d="M9582 5918 L9582 5316" stroke-width="18" />
                        </g>
                     </g>
                  </g>
               </g>
               <g id="siwo2us" class="slur">
                  <path d="M8289,6058 C9011,6357 9922,6357 10645,6058 C9935,6416 8998,6416 8289,6058" stroke-width="9" stroke-linecap="round" stroke-linejoin="round" />
               </g>
               <g id="t1ef6ihf" class="staff">
                  <path d="M8097 7026 L10453 7026" stroke-width="13" />
                  <path d="M8097 7206 L10453 7206" stroke-width="13" />
                  <path d="M8097 7386 L10453 7386" stroke-width="13" />
                  <path d="M8097 7566 L10453 7566" stroke-width="13" />
                  <path d="M8097 7746 L10453 7746" stroke-width="13" />
                  <g id="u11pmb47" class="layer">
                     <g id="v1m1jxne" class="note">
                        <g class="notehead">
                           <use xlink:href="#E0A3-f1e4zbxl" transform="translate(8289, 7206) scale(0.72, 0.72)" />
                        </g>
                        <g id="xze064r" class="stem">
                           <path d="M8298 7231 L8298 7836" stroke-width="18" />
                        </g>
                     </g>
                     <g id="wsg1d2x" class="note">
                        <g class="notehead">
                           <use xlink:href="#E0A3-f1e4zbxl" transform="translate(9365, 7296) scale(0.72, 0.72)" />
                        </g>
                        <g id="ymjrlcr" class="stem">
                           <path d="M9374 7321 L9374 7926" stroke-width="18" />
                        </g>
                     </g>
                  </g>
               </g>
               <g id="x1nxcmda" class="slur" />
               <g id="n373hww" class="barLine">
                  <path d="M10440 5226 L10440 5946" stroke-width="27" />
                  <path d="M10440 7026 L10440 7746" stroke-width="27" />
               </g>
            </g>
            <g id="y1yt4iep" class="measure">
               <g id="h1so7d2w" class="staff">
                  <path d="M10453 5226 L12287 5226" stroke-width="13" />
                  <path d="M10453 5406 L12287 5406" stroke-width="13" />
                  <path d="M10453 5586 L12287 5586" stroke-width="13" />
                  <path d="M10453 5766 L12287 5766" stroke-width="13" />
                  <path d="M10453 5946 L12287 5946" stroke-width="13" />
                  <g id="i1cu9rn7" class="layer">
                     <g id="j12fh3" class="note">
                        <g class="notehead">
                           <use xlink:href="#E0A2-f1e4zbxl" transform="translate(10645, 6036) scale(0.72, 0.72)" />
                        </g>
                     </g>
                  </g>
               </g>
               <g id="k8fqcwj" class="staff">
                  <path d="M10453 7026 L12287 7026" stroke-width="13" />
                  <path d="M10453 7206 L12287 7206" stroke-width="13" />
                  <path d="M10453 7386 L12287 7386" stroke-width="13" />
                  <path d="M10453 7566 L12287 7566" stroke-width="13" />
                  <path d="M10453 7746 L12287 7746" stroke-width="13" />
                  <g id="lyw2h27" class="layer">
                     <g id="def" class="note">
                        <g class="notehead">
                           <use xlink:href="#E0A2-f1e4zbxl" transform="translate(10645, 7386) scale(0.72, 0.72)" />
                        </g>
                     </g>
                  </g>
               </g>
               <g id="g1rd91zs" class="barLine">
                  <path d="M12274 5226 L12274 5946" stroke-width="27" />
                  <path d="M12274 7026 L12274 7746" stroke-width="27" />
               </g>
            </g>
            <g id="n9gzag5" class="measure">
               <g id="w1t224ef" class="staff">
                  <path d="M12287 5226 L14121 5226" stroke-width="13" />
                  <path d="M12287 5406 L14121 5406" stroke-width="13" />
                  <path d="M12287 5586 L14121 5586" stroke-width="13" />
                  <path d="M12287 5766 L14121 5766" stroke-width="13" />
                  <path d="M12287 5946 L14121 5946" stroke-width="13" />
                  <g id="x8707sj" class="layer">
                     <g id="y1xr29pg" class="note">
                        <g class="notehead">
                           <use xlink:href="#E0A2-f1e4zbxl" transform="translate(12479, 6036) scale(0.72, 0.72)" />
                        </g>
                     </g>
                  </g>
               </g>
               <g id="zzvvq1n" class="staff">
                  <path d="M12287 7026 L14121 7026" stroke-width="13" />
                  <path d="M12287 7206 L14121 7206" stroke-width="13" />
                  <path d="M12287 7386 L14121 7386" stroke-width="13" />
                  <path d="M12287 7566 L14121 7566" stroke-width="13" />
                  <path d="M12287 7746 L14121 7746" stroke-width="13" />
                  <g id="ahw5jpx" class="layer">
                     <g id="ghi" class="note">
                        <g class="notehead">
                           <use xlink:href="#E0A2-f1e4zbxl" transform="translate(12479, 7386) scale(0.72, 0.72)" />
                        </g>
                     </g>
                  </g>
               </g>
               <g id="vmquvbl" class="barLine">
                  <path d="M14108 5226 L14108 5946" stroke-width="27" />
                  <path d="M14108 7026 L14108 7746" stroke-width="27" />
               </g>
            </g>
            <g id="c14wat9g" class="measure">
               <g id="l1h5gy0q" class="staff">
                  <path d="M14121 5226 L17151 5226" stroke-width="13" />
                  <path d="M14121 5406 L17151 5406" stroke-width="13" />
                  <path d="M14121 5586 L17151 5586" stroke-width="13" />
                  <path d="M14121 5766 L17151 5766" stroke-width="13" />
                  <path d="M14121 5946 L17151 5946" stroke-width="13" />
                  <g id="m1lmw5hg" class="layer">
                     <g id="n14s3s9c" class="note">
                        <g class="notehead">
                           <use xlink:href="#E0A4-f1e4zbxl" transform="translate(14313, 5946) scale(0.72, 0.72)" />
                        </g>
                        <g id="d1bc9dtv" class="stem">
                           <path d="M14530 5918 L14530 5316" stroke-width="18" />
                        </g>
                     </g>
                     <g id="owy9737" class="note">
                        <g class="notehead">
                           <use xlink:href="#E0A4-f1e4zbxl" transform="translate(15020, 5856) scale(0.72, 0.72)" />
                        </g>
                        <g id="e9qgb2o" class="stem">
                           <path d="M15237 5828 L15237 5226" stroke-width="18" />
                        </g>
                     </g>
                     <g id="p1nkmwpw" class="note">
                        <g class="notehead">
                           <use xlink:href="#E0A4-f1e4zbxl" transform="translate(15726, 5766) scale(0.72, 0.72)" />
                        </g>
                        <g id="f6j9q2" class="stem">
                           <path d="M15943 5738 L15943 5136" stroke-width="18" />
                        </g>
                     </g>
                     <g id="qf65s56" class="note">
                        <g class="notehead">
                           <use xlink:href="#E0A4-f1e4zbxl" transform="translate(16432, 5856) scale(0.72, 0.72)" />
                        </g>
                        <g id="g1lpg77" class="stem">
                           <path d="M16649 5828 L16649 5226" stroke-width="18" />
                        </g>
                     </g>
                  </g>
               </g>
               <g id="rtx8g5j" class="staff">
                  <path d="M14121 7026 L17151 7026" stroke-width="13" />
                  <path d="M14121 7206 L17151 7206" stroke-width="13" />
                  <path d="M14121 7386 L17151 7386" stroke-width="13" />
                  <path d="M14121 7566 L17151 7566" stroke-width="13" />
                  <path d="M14121 7746 L17151 7746" stroke-width="13" />
                  <g id="stkni0m" class="layer">
                     <g id="t2lgmb5" class="note">
                        <g class="notehead">
                           <use xlink:href="#E0A4-f1e4zbxl" transform="translate(14313, 7296) scale(0.72, 0.72)" />
                        </g>
                        <g id="htlwa55" class="stem">
                           <path d="M14322 7324 L14322 7926" stroke-width="18" />
                        </g>
                     </g>
                     <g id="u134daiq" class="note">
                        <g class="notehead">
                           <use xlink:href="#E0A4-f1e4zbxl" transform="translate(15020, 7206) scale(0.72, 0.72)" />
                        </g>
                        <g id="ioj95cv" class="stem">
                           <path d="M15029 7234 L15029 7836" stroke-width="18" />
                        </g>
                     </g>
                     <g id="vmsxosh" class="note">
                        <g class="notehead">
                           <use xlink:href="#E0A4-f1e4zbxl" transform="translate(15726, 7116) scale(0.72, 0.72)" />
                        </g>
                        <g id="j19iubql" class="stem">
                           <path d="M15735 7144 L15735 7746" stroke-width="18" />
                        </g>
                     </g>
                     <g id="wnhk51z" class="note">
                        <g class="notehead">
                           <use xlink:href="#E0A4-f1e4zbxl" transform="translate(16432, 7206) scale(0.72, 0.72)" />
                        </g>
                        <g id="komd84" class="stem">
                           <path d="M16441 7234 L16441 7836" stroke-width="18" />
                        </g>
                     </g>
                  </g>
               </g>
               <g id="k5rlrz4" class="barLine">
                  <path d="M17138 5226 L17138 5946" stroke-width="27" />
                  <path d="M17138 7026 L17138 7746" stroke-width="27" />
               </g>
            </g>
            <g id="x1liyyth" class="measure">
               <g id="gyixj0b" class="staff">
                  <path d="M17151 5226 L20006 5226" stroke-width="13" />
                  <path d="M17151 5406 L20006 5406" stroke-width="13" />
                  <path d="M17151 5586 L20006 5586" stroke-width="13" />
                  <path d="M17151 5766 L20006 5766" stroke-width="13" />
                  <path d="M17151 5946 L20006 5946" stroke-width="13" />
                  <g id="h18is2br" class="layer">
                     <g id="i16erobw" class="note">
                        <g class="notehead">
                           <use xlink:href="#E0A4-f1e4zbxl" transform="translate(17343, 5946) scale(0.72, 0.72)" />
                        </g>
                        <g id="l167v2ru" class="stem">
                           <path d="M17560 5918 L17560 5316" stroke-width="18" />
                        </g>
                     </g>
                     <g id="j1opzu9w" class="rest">
                        <use xlink:href="#E4E5-f1e4zbxl" transform="translate(18050, 5586) scale(0.72, 0.72)" />
                     </g>
                     <g id="kfvrhtj" class="rest">
                        <use xlink:href="#E4E4-f1e4zbxl" transform="translate(18756, 5586) scale(0.72, 0.72)" />
                        <g class="ledgerLines" />
                     </g>
                  </g>
               </g>
               <g id="la157ij" class="staff">
                  <path d="M17151 7026 L20006 7026" stroke-width="13" />
                  <path d="M17151 7206 L20006 7206" stroke-width="13" />
                  <path d="M17151 7386 L20006 7386" stroke-width="13" />
                  <path d="M17151 7566 L20006 7566" stroke-width="13" />
                  <path d="M17151 7746 L20006 7746" stroke-width="13" />
                  <g id="mfyn3hw" class="layer">
                     <g id="n9fy5gr" class="note">
                        <g class="notehead">
                           <use xlink:href="#E0A4-f1e4zbxl" transform="translate(17343, 7296) scale(0.72, 0.72)" />
                        </g>
                        <g id="m19sorje" class="stem">
                           <path d="M17352 7324 L17352 7926" stroke-width="18" />
                        </g>
                     </g>
                     <g id="opj7t6a" class="rest">
                        <use xlink:href="#E4E5-f1e4zbxl" transform="translate(18050, 7386) scale(0.72, 0.72)" />
                     </g>
                     <g id="phch4ui" class="rest">
                        <use xlink:href="#E4E4-f1e4zbxl" transform="translate(18756, 7386) scale(0.72, 0.72)" />
                        <g class="ledgerLines" />
                     </g>
                  </g>
               </g>
               <g id="fwtu8gz" class="barLine">
                  <path d="M19831 5226 L19831 5946" stroke-width="27" />
                  <path d="M19961 5226 L19961 5946" stroke-width="90" />
                  <path d="M19831 7026 L19831 7746" stroke-width="27" />
                  <path d="M19961 7026 L19961 7746" stroke-width="90" />
               </g>
            </g>
            <g id="xol4ny" class="systemMilestoneEnd i6sxeju" />
         </g>
         <g id="yosk3a4" class="pageMilestoneEnd h1073m6b" />
         <g id="z1j4wfgg" class="pageMilestoneEnd g1ha195l" />
         <g id="gkpq27a" class="pgHead autogenerated">
            <text font-size="0px">
               <tspan id="hmn1fsb" class="rend" x="10000" y="414" text-anchor="middle">
                  <title class="labelAttr">title</title>
                  <tspan id="i2r766x" class="rend">
                     <tspan id="j1ofpqj6" class="text">
                        <tspan font-size="607px">Repetition (1)</tspan>
                     </tspan>
                  </tspan>
               </tspan>
            </text>
         </g>
         <g id="ans7t5j" class="pgFoot autogenerated">
            <g id="b1gwhklf" class="fig">
               <g class="svg" transform="translate(7750, 28099) scale(10.000000, 10.000000)">
                  <g>
                     <path fill="#00000" d="M 17.11278,49.26451 V 10.367554 h 12.696511 c 3.288815,7.336676 6.71267,14.610456 10.127281,21.888976 3.419998,-7.484684 6.255515,-14.204887 9.58887,-21.909915 2.436207,0.103726 4.316952,0.08453 6.484294,-0.05808 V 49.264423 H 50.274275 C 50.145222,38.35639 50.016136,27.448368 49.887066,16.540329 45.003488,27.315459 39.967448,38.433564 35.083854,49.208695 34.678996,49.343717 34.426583,49.135619 34.021726,49.270644 29.46588,39.330716 24.910049,29.390805 20.354201,19.450876 20.224341,29.388756 20.09461,39.326619 19.964815,49.264497 H 17.11278 Z M 36.754144,39.324695 C 32.721221,30.512695 28.6883,21.700679 24.655394,12.888662 22.530527,12.750737 22.656775,12.71031 20.714356,12.813974 v 0.966497 c 4.612938,9.99784 9.609439,20.748709 13.87298,30.081745 0.722248,-1.512523 1.444528,-3.025014 2.166808,-4.537521 z m 25.738417,9.939815 c 0,-12.965651 0,-25.931305 0,-38.896956 10.084388,0 20.168791,0 30.253178,0 0,0.960416 0,1.920849 0,2.881265 -6.482825,0 -12.965652,0 -19.448478,0 0,4.802097 0,9.604178 0,14.406277 5.52241,0 11.044819,0 16.567229,0 0,0.960415 0,1.920832 0,2.881248 -5.52241,0 -11.044819,0 -16.567229,0 0,5.282306 0,10.564611 0,15.846917 6.963035,0 13.926068,0 20.889103,0 0,0.960416 0,1.920832 0,2.881249 -10.564597,0 -21.129207,0 -31.693803,0 z m 4.321874,-2.160937 c 0,-11.765131 0,-23.530263 0,-35.295394 -0.720312,0 -1.440625,0 -2.160937,0 0,11.765131 0,23.530263 0,35.295394 0.720312,0 1.440625,0 2.160937,0 z m 32.41413,2.160937 c 0,-12.965651 0,-25.931305 0,-38.896956 2.401045,0 4.802095,0 7.203135,0 0,12.965651 0,25.931305 0,38.896956 -2.40104,0 -4.80209,0 -7.203135,0 z m 2.881265,-2.160937 c 0,-11.765131 0,-23.530263 0,-35.295394 -0.72031,0 -1.44064,0 -2.160953,0 0,11.765131 0,23.530263 0,35.295394 0.720313,0 1.440643,0 2.160953,0 z" />
                     <path fill="#00000" d="m 346.3,6.7 c -3.1,0.5 -4.9,4.4 -2.7,6.8 1.2,1.4 2.7,2.4 4.1,3.5 -2.4,5.3 -7.7,8.3 -11.9,12.1 -3.7,2.8 -7,6.2 -9.7,9.9 -2.2,-0.8 -0.91472,-7.718806 -0.62677,-9.5 0.28796,-1.781194 0.72677,-6.4 2.92677,-8.7 1.3,-1.9 3,-3.5 4.5,-5.2 1.2,-3.4 -3.2,-4.9 -5.8,-4.6 -7.3,-0.5 -14.6,2 -20,6.8 -5,4.6 -10,10.1 -11.5,17 -0.9,3.5 -0.2,7.5 2.8,9.9 2.5,2.8 7.4,2.9 9.8,-0.2 1.7,-2.3 3.2,-4.8 3.8,-7.6 -0.1,-2.6 -4.4,-2.3 -4.3,0.2 1.2,2.4 -0.9,4.7 -2.7,6.2 -1.7,0.9 -4.7,0.7 -4.8,-1.7 -1,-5.8 2.1,-11.3 5.2,-16.1 4,-5.8 9.8,-11.2 17.2,-11.8 1.6,0 8.1,-1.2 6.8,1.4 -2.8,2.8 -5.6,6.1 -6,10.3 -1.6,7.7 0.1,15.7 -2.3,23.2 -1.1,3.9 2,2.6 2.5,0.2 3.3,-7.4 8.9,-13.4 15.1,-18.5 4.2,-3.9 9.5,-7.1 11.9,-12.6 1.3,-3.6 1.2,-9 -2.7,-10.9 -0.50431,-0.1767056 -1.06965,-0.1654404 -1.6,-0.1 z m 66,14.5 c -2,0.8 -1.8,4.9 0.8,4.4 3.4,0.4 2.9,-6.2 -0.8,-4.4 z m 0.6,7.3 c -1.3,0.5 -7.6,0.5 -5.4,2.2 4,-0.3 0.7,4.5 0.6,6.7 -0.4,2.9 -2.4,5.9 -1.2,8.8 2.7,1.7 5.6,-0.8 6.8,-3.2 1.6,-1.4 -0.5,-3 -1.2,-0.9 -0.4,0.8 -2.4,3.5 -2.6,1.8 1.1,-5 2.7,-9.9 3.9,-14.9 l -0.1,-0.5 h -0.9 z m -65.1,0.2 c -6.5,1.6 -10.5,9.5 -8.2,15.7 2.1,3.4 7.4,2.9 10.1,0.4 2,-0.2 3.6,-5.3 1,-3.4 -1.4,2 -4,4.2 -6.5,2.8 -2.2,-1.9 -1.9,-5.7 1.7,-5.3 3.1,-0.9 6.9,-2.1 8.1,-5.5 0.9,-2.7 -1.6,-5.2 -4.3,-4.8 h -1.1 -0.7 z m 13.6,0 c -2.2,0 -8.5,1.8 -2.9,2.3 0.9,1.9 -1,4.9 -1.1,7.2 -0.5,2.9 -1.4,5.7 -1.7,8.7 3.7,0.7 3.8,-2.6 4.4,-5.3 0.9,-3.3 1.6,-7 4.1,-9.5 2.4,1.6 6.8,-0.7 3.7,-3.4 -2.9,-0.5 -4.8,2.4 -6.2,4.3 0,-1.2 2.4,-5 -0.2,-4.3 z m 15.8,0 c -6.4,1.3 -9.6,9.1 -7.7,14.9 1.9,4 7.7,3.9 11,1.7 4.1,-3 6,-8.9 4.4,-13.7 -1.3,-3 -4.8,-3.2 -7.6,-3 z m 17,0 c -2.3,0 -8.8,1.9 -3,2.4 0.4,2.5 -1,5.7 -1.4,8.4 -0.7,2.4 -1.8,7.5 2.1,7.2 3.8,-0.1 6.5,-3.5 8.5,-6.3 2,-3.2 4.5,-7 3.3,-10.9 -3.7,-3 -3.6,2.6 -3.1,5.1 -0.7,3.8 -2.7,7.9 -6.2,9.8 -3.6,0.6 -1,-4.3 -0.8,-6.1 0.6,-3.2 1.6,-6.3 1.9,-9.5 h -1.1 z m 30.6,0 c -6.3,1.2 -9.5,8.9 -7.8,14.7 1.5,4 7.2,4.2 10.5,2.4 4.6,-2.8 6.6,-9.3 4.8,-14.3 -1.4,-2.8 -4.8,-3 -7.5,-2.8 z m -75.4,1.7 c 2.1,1.5 0.2,4.7 -1.6,5.7 -1.1,0.4 -5.5,3.4 -4.6,0.7 0.8,-2.7 2.2,-6.2 5.3,-6.6 l 0.9,0.1 z m 30.8,0 c 2.6,1.5 1.3,5.2 0.8,7.6 -0.8,2.7 -1.9,5.9 -4.7,7.1 -5.1,0.8 -4,-5.8 -2.8,-8.8 1,-2.8 3,-6.8 6.7,-5.8 z m 47.1,-0.1 c 2.9,0.7 2,4.7 1.5,6.8 -0.7,3 -1.8,6.7 -5,8 -4.7,0.8 -4,-5.1 -3,-7.9 0.9,-3 2.7,-7.3 6.5,-6.8 z" />
                     <g>
                        <path d="m 116.56641,37.118164 q 0,-3.251953 2.92968,-6.298828 2.90039,-3.046875 5.99121,-3.046875 1.14258,0 1.81641,0.527344 0.67383,0.527343 0.67383,1.567382 0,2.109375 -2.47559,3.618165 -2.46093,1.49414 -5.18554,1.831054 l -0.83496,0.102539 q -0.19043,0.600586 -0.26368,0.966797 -0.0732,0.351563 -0.0732,0.893555 0,1.289062 0.83496,2.006836 0.84961,0.717773 2.00684,0.717773 1.09863,0 2.3291,-0.732422 0.70312,-0.424804 2.03613,-1.523437 l 0.38086,0.336914 q -0.65918,0.834961 -1.88965,1.713867 -2.18261,1.567383 -4.37988,1.567383 -1.55273,0 -2.72461,-1.098633 -1.17187,-1.098633 -1.17187,-3.149414 z m 3.12011,-2.358398 q 2.79786,-0.410157 4.55567,-1.962891 Q 126,31.229492 126,29.691406 q 0,-0.55664 -0.26367,-0.878906 -0.26367,-0.336914 -0.77637,-0.336914 -0.95215,0 -1.875,0.820312 -0.9082,0.805664 -1.64062,1.831055 -0.77637,1.201172 -1.23047,2.299805 -0.24903,0.585937 -0.52735,1.333008 z" />
                        <path d="m 129.47168,41 2.53418,-9.052734 q 0.32226,-1.142579 0.36621,-1.376954 0.0586,-0.249023 0.0586,-0.527343 0,-0.424805 -0.24902,-0.65918 -0.23437,-0.249023 -0.9375,-0.249023 -0.17578,0 -0.35156,0.0293 -0.16113,0.01465 -0.36621,0.04395 v -0.498047 q 0.95215,-0.146484 1.34765,-0.219727 0.41016,-0.07324 0.87891,-0.175781 l 2.62207,-0.571289 q 0.0879,0.05859 0.11719,0.131836 l -1.94824,6.298828 q 1.7871,-2.739258 2.98828,-4.072266 2.10937,-2.358398 3.77929,-2.358398 0.64453,0 1.11328,0.249023 0.89356,0.483399 0.89356,1.743165 0,0.351562 -0.0732,0.732421 -0.0732,0.38086 -0.19043,0.820313 l -1.91895,7.016601 q -0.0586,0.219727 -0.13183,0.541993 -0.0733,0.307617 -0.0733,0.439453 0,0.219726 0.10254,0.395508 0.10254,0.175781 0.33692,0.175781 0.38086,0 0.8789,-0.439453 0.49805,-0.454102 1.62598,-1.918946 l 0.4248,0.38086 q -1.20117,1.625976 -1.90429,2.285156 -1.20117,1.157227 -2.29981,1.157227 -0.49804,0 -0.96679,-0.322266 -0.45411,-0.336914 -0.45411,-1.201172 0,-0.249023 0.0293,-0.527344 0.0439,-0.27832 0.10254,-0.483398 l 1.8457,-7.119141 q 0.14649,-0.585937 0.19043,-0.952148 0.0586,-0.38086 0.0586,-0.541992 0,-0.351563 -0.17578,-0.600586 -0.16114,-0.263672 -0.58594,-0.263672 -1.09863,0 -2.76856,1.992187 -0.98144,1.186524 -1.99218,2.827149 -0.77637,1.274414 -1.23047,2.490234 Q 132.70898,37.821289 131.74219,41 Z" />
                        <path d="m 149.12988,33.5 q 0,0.908203 0.27832,1.450195 0.46875,0.893555 1.68457,0.893555 1.31836,0 2.34375,-1.669922 1.04004,-1.68457 1.04004,-3.706055 0,-0.966796 -0.4248,-1.508789 -0.42481,-0.55664 -1.27442,-0.55664 -1.64062,0 -2.65136,1.743164 -0.9961,1.743164 -0.9961,3.354492 z m 0.5127,13.066406 q 1.74316,0 2.88574,-0.834961 1.15723,-0.834961 1.15723,-1.992187 0,-0.878906 -0.60059,-1.479492 -0.32226,-0.322266 -1.04004,-0.688477 -0.60058,-0.292969 -2.03613,-0.834961 -1.4209,-0.556641 -1.64063,-0.556641 -0.38086,0 -1.47949,1.010743 -1.09863,1.02539 -1.09863,2.314453 0,1.948242 1.68457,2.680664 0.87891,0.380859 2.16797,0.380859 z m -5.47852,-2.680664 q 0,-1.098633 0.83496,-2.094726 0.84961,-0.981446 2.68067,-1.962891 -0.36621,-0.234375 -0.60059,-0.483398 -0.23437,-0.263672 -0.23437,-0.688477 0,-0.600586 0.83496,-1.376953 0.46875,-0.439453 1.52343,-1.157227 -0.9375,-0.351562 -1.61132,-0.996093 -0.82032,-0.864258 -0.82032,-2.241211 0,-2.211914 1.72852,-3.676758 1.72852,-1.464844 4.27734,-1.464844 1.33301,0 2.25586,0.424805 0.92285,0.410156 1.08399,0.688476 h 1.97754 v 1.171875 h -1.49414 q 0.0879,0.322266 0.13183,0.585938 0.0439,0.263672 0.0439,0.74707 0,2.373047 -1.84571,3.735352 -1.83105,1.362304 -3.95507,1.362304 -0.21973,0 -0.41016,-0.01465 -0.19043,-0.0293 -0.46875,-0.08789 -0.21973,0 -0.60059,0.424805 -0.3955,0.424805 -0.3955,0.761719 0,0.498047 3.22265,1.699218 3.20801,1.215821 3.20801,3.559571 0,1.757812 -1.61133,3.076172 -1.61133,1.333007 -4.86328,1.333007 -2.25586,0 -3.57422,-0.966796 -1.31836,-0.966797 -1.31836,-2.358399 z" />
                        <path d="m 165.03809,27.669922 q 0.13183,0 0.17578,0.08789 0.0586,0.07324 0.0586,0.175782 -0.0146,0.146484 -0.0293,0.219726 l -1.46484,5.668946 0.32227,-0.629883 q 1.05468,-2.06543 2.46093,-3.764649 1.4209,-1.713867 2.69532,-1.713867 0.68847,0 1.05468,0.454102 0.38086,0.454101 0.38086,1.040039 0,0.659179 -0.38086,1.098633 -0.36621,0.424804 -1.02539,0.424804 -0.4541,0 -0.68847,-0.175781 -0.23438,-0.175781 -0.36621,-0.410156 l -0.17579,-0.322266 q -0.0586,-0.08789 -0.14648,-0.131836 -0.0732,-0.05859 -0.19043,-0.05859 -0.57129,0 -1.65527,1.59668 -1.06934,1.59668 -1.91895,3.457031 -0.51269,1.12793 -1.14258,2.988282 Q 162.60645,38.84668 161.94727,41 h -2.25586 l 2.43164,-8.818359 q 0.20507,-0.761719 0.32226,-1.362305 0.13184,-0.600586 0.13184,-0.981445 0,-0.439454 -0.21973,-0.673829 -0.21972,-0.234375 -0.76172,-0.234375 -0.17578,0 -0.43945,0.0293 -0.26367,0.0293 -0.62988,0.07324 v -0.483399 l 0.58593,-0.117187 q 1.14258,-0.234375 2.49024,-0.498047 1.3623,-0.263672 1.43555,-0.263672 z" />
                        <path d="m 181.51758,30.423828 q 0,-1.054687 -0.4834,-1.552734 -0.4834,-0.498047 -1.17188,-0.498047 -2.38769,0 -4.43847,3.662109 -1.80176,3.222656 -1.80176,5.551758 0,1.171875 0.49805,1.713867 0.51269,0.527344 1.25976,0.527344 2.21192,0 4.2627,-3.55957 1.875,-3.237305 1.875,-5.844727 z m -1.83106,-2.709961 q 1.15723,0 1.78711,0.600586 0.33692,0.322266 0.52735,0.849609 l 0.0732,0.205079 0.32226,-1.113282 q 0.0586,-0.190429 0.10254,-0.249023 0.0439,-0.07324 0.20508,-0.08789 l 1.65527,-0.190429 q 0.13184,0 0.14649,0.05859 0.0293,0.04395 0,0.175782 -0.0586,0.190429 -0.0879,0.307617 -0.0293,0.102539 -0.0879,0.307617 l -1.34766,5.244141 q -0.43945,1.713867 -0.74707,2.958984 -0.54199,2.255859 -0.54199,2.578125 0,0.205078 0.10254,0.307617 0.11719,0.08789 0.27832,0.08789 0.13183,0 0.27832,-0.08789 0.16113,-0.08789 0.38086,-0.263672 l 0.24902,-0.205078 q 0.11719,-0.102539 0.26367,-0.234375 0.14649,-0.146484 0.35157,-0.351562 l 0.9082,-0.9375 0.35156,0.307617 q -1.52344,1.948242 -2.44629,2.651367 -0.92285,0.688477 -1.75781,0.688477 -0.54199,0 -0.84961,-0.38086 -0.29297,-0.380859 -0.29297,-0.952148 0,-0.527344 0.19043,-1.508789 0.20508,-0.996094 0.39551,-1.669922 -0.26367,0.439453 -0.89356,1.289062 -0.61523,0.834961 -1.52343,1.625977 -1.06934,0.952148 -2.05078,1.347656 -0.76172,0.263672 -1.46485,0.263672 -1.18652,0 -2.15332,-0.966797 -0.96679,-0.981445 -0.96679,-2.768555 0,-3.076171 2.7539,-6.416015 2.8418,-3.47168 5.88867,-3.47168 z" />
                        <path d="m 196.66406,27.772461 q 0.82031,0 1.25977,0.585937 0.43945,0.585938 0.43945,1.333008 0,1.977539 -3.91113,6.928711 -3.70606,4.702149 -4.43848,4.702149 -0.21972,0 -0.29297,-0.600586 -0.0439,-0.336914 -0.0439,-1.142578 0,-0.981446 -0.19043,-3.325196 -0.19043,-2.34375 -0.36621,-3.471679 -0.36621,-2.475586 -0.71778,-3.19336 -0.35156,-0.717773 -1.333,-0.717773 -0.16114,0 -0.38086,0.01465 -0.20508,0.01465 -0.4834,0.04395 v -0.380859 q 0.43945,-0.08789 1.8457,-0.395508 1.40625,-0.307617 1.49414,-0.336914 l 0.4834,-0.146484 q 0.20508,-0.05859 0.32227,0.234375 0.11718,0.27832 0.29296,1.054687 0.55665,2.548828 0.83497,5.024414 0.17578,1.538086 0.35156,4.555664 l 0.4834,-0.512695 q 1.50879,-1.59668 3.01757,-3.793945 1.50879,-2.197266 1.50879,-3.105469 0,-0.454101 -0.65918,-1.083984 -0.65918,-0.644532 -0.65918,-1.171875 0,-0.483399 0.32227,-0.791016 0.33691,-0.307617 0.82031,-0.307617 z" />
                        <path d="m 199.82812,37.118164 q 0,-3.251953 2.92969,-6.298828 2.90039,-3.046875 5.99121,-3.046875 1.14258,0 1.81641,0.527344 0.67383,0.527343 0.67383,1.567382 0,2.109375 -2.47559,3.618165 -2.46094,1.49414 -5.18555,1.831054 l -0.83496,0.102539 q -0.19043,0.600586 -0.26367,0.966797 -0.0732,0.351563 -0.0732,0.893555 0,1.289062 0.83496,2.006836 0.84961,0.717773 2.00684,0.717773 1.09863,0 2.3291,-0.732422 0.70312,-0.424804 2.03613,-1.523437 l 0.38086,0.336914 q -0.65918,0.834961 -1.88965,1.713867 -2.18262,1.567383 -4.37988,1.567383 -1.55274,0 -2.72461,-1.098633 -1.17188,-1.098633 -1.17188,-3.149414 z m 3.12012,-2.358398 q 2.79785,-0.410157 4.55567,-1.962891 1.75781,-1.567383 1.75781,-3.105469 0,-0.55664 -0.26367,-0.878906 -0.26368,-0.336914 -0.77637,-0.336914 -0.95215,0 -1.875,0.820312 -0.9082,0.805664 -1.64063,1.831055 -0.77636,1.201172 -1.23046,2.299805 -0.24903,0.585937 -0.52735,1.333008 z" />
                        <path d="m 215.23828,37.601562 q 0,0.893555 0.41016,1.567383 0.41015,0.65918 1.3916,0.65918 2.09473,0 4.02832,-3.369141 1.81641,-3.164062 1.81641,-5.991211 0,-0.893554 -0.29297,-1.479492 -0.29297,-0.585937 -1.18653,-0.585937 -2.22656,0 -4.30664,3.603515 -1.86035,3.222657 -1.86035,5.595703 z m 6.00586,-9.887695 q 1.15723,0 1.64063,0.556641 0.27832,0.322265 0.43945,1.098633 l 1.66992,-6.00586 q 0.0732,-0.249023 0.0879,-0.439453 0.0293,-0.205078 0.0293,-0.351562 0,-0.571289 -0.21973,-0.717774 -0.20508,-0.146484 -0.60058,-0.146484 -0.24903,0 -0.46875,0.01465 -0.20508,0.01465 -0.55665,0.04395 v -0.483399 q 1.65528,-0.219726 4.58497,-0.761719 l 0.13183,0.146485 -0.0293,0.161133 -2.8125,10.532226 -1.91894,6.972656 q -0.0586,0.234375 -0.10254,0.439453 -0.0293,0.19043 -0.0293,0.351563 0,0.395508 0.19043,0.512695 0.20508,0.117188 0.35157,0.117188 0.4248,0 1.20117,-0.747071 0.4541,-0.454101 1.24511,-1.40625 l 0.33692,0.322266 -0.20508,0.307617 q -0.54199,0.805664 -1.3916,1.640625 -1.50879,1.479492 -2.70996,1.479492 -0.39551,0 -0.71778,-0.175781 -0.60058,-0.351562 -0.60058,-1.259765 0,-0.307618 0.0879,-0.981446 0.0879,-0.673828 0.26367,-1.464843 -1.11328,1.699218 -2.44629,2.783203 -1.31836,1.083984 -2.88574,1.083984 -1.27441,0 -2.22656,-0.908203 -0.95215,-0.908203 -0.95215,-2.797852 0,-3.193359 2.92969,-6.5625 2.91504,-3.354492 5.68359,-3.354492 z" />
                        <path d="m 254.12988,29.530273 q 0,1.230469 -1.18652,3.251954 -0.65918,1.127929 -1.86035,2.739257 -1.23047,1.655274 -2.53418,3.266602 -2.06543,2.548828 -2.43164,2.548828 -0.16114,0 -0.20508,-0.131836 -0.044,-0.131836 -0.11719,-0.893555 l -0.86426,-9.125976 -6.0791,9.960937 q -0.0439,0.08789 -0.11719,0.117188 -0.0586,0.0293 -0.13183,0.0293 l -0.20508,-0.04395 -0.0293,-0.131836 -0.17578,-3.618164 q -0.0586,-1.21582 -0.17578,-2.504882 -0.10254,-1.303711 -0.20508,-2.25586 -0.30761,-2.651367 -0.65918,-3.251953 -0.33691,-0.600586 -1.25976,-0.600586 -0.17578,0 -0.35156,0.01465 -0.17579,0 -0.36622,0.0293 v -0.424804 q 0.60059,-0.102539 1.14258,-0.219727 0.55664,-0.117187 1.21582,-0.263672 l 1.37696,-0.351562 q 0.49804,0 1.01074,4.174805 0.27832,2.285156 0.49805,5.200195 l 5.75683,-9.09668 q 0.0586,-0.117187 0.14649,-0.19043 0.0879,-0.08789 0.20507,-0.08789 0.13184,0 0.17578,0.08789 0.0439,0.08789 0.0586,0.263672 l 0.98144,10.590821 q 0.10254,-0.131836 1.62598,-2.06543 1.52344,-1.948242 1.59668,-2.06543 1.09863,-1.582031 1.46484,-2.446289 0.23438,-0.55664 0.23438,-1.083984 0,-0.205078 -0.0586,-0.38086 -0.0586,-0.190429 -0.27833,-0.395507 L 251.87402,29.75 q -0.19043,-0.19043 -0.33691,-0.410156 -0.13184,-0.234375 -0.13184,-0.541992 0,-0.366211 0.24903,-0.747071 0.26367,-0.380859 0.9375,-0.380859 0.54199,0 1.04004,0.439453 0.49804,0.424805 0.49804,1.420898 z" />
                        <path d="m 261.17578,24.520508 q -0.60058,0 -1.02539,-0.46875 -0.4248,-0.46875 -0.4248,-1.12793 0,-0.673828 0.4248,-1.142578 0.42481,-0.46875 1.02539,-0.46875 0.60059,0 1.02539,0.46875 0.43945,0.46875 0.43945,1.142578 0,0.673828 -0.43945,1.142578 -0.4248,0.454102 -1.02539,0.454102 z m 0.35156,3.208008 q 0.0879,0.04395 0.0733,0.117187 l -2.95899,10.458984 q -0.20508,0.834961 -0.20508,0.996094 0,0.219727 0.0879,0.38086 0.0733,0.175781 0.36621,0.175781 0.49805,0 1.31836,-0.864258 0.4834,-0.512695 1.18653,-1.464844 l 0.38086,0.322266 -0.14649,0.205078 q -1.09863,1.538086 -1.8164,2.211914 -1.12793,1.054688 -2.19727,1.054688 -0.62988,0 -1.05469,-0.527344 -0.41015,-0.527344 -0.41015,-1.245117 0,-0.424805 0.0586,-0.732422 0.0586,-0.322266 0.21973,-0.9375 l 2.05078,-7.529297 q 0.0439,-0.175781 0.0732,-0.322266 0.0293,-0.146484 0.0293,-0.292968 0,-0.527344 -0.39551,-0.644532 -0.38086,-0.131836 -1.52344,-0.131836 v -0.483398 q 1.21582,-0.146484 1.74317,-0.219727 0.54199,-0.08789 1.08398,-0.175781 0.70313,-0.117187 1.33301,-0.263672 0.62988,-0.146484 0.70312,-0.08789 z" />
                        <path d="m 264.17871,40.033203 q 0,-0.117187 0.0146,-0.263672 0.0147,-0.161133 0.0586,-0.322265 l 2.75391,-10.239258 h -2.22656 q 0,-0.395508 0.0586,-0.498047 0.0586,-0.102539 0.29297,-0.205078 1.47949,-0.629883 2.28516,-1.215821 0.82031,-0.585937 2.22656,-2.255859 l 0.23437,-0.27832 q 0.0439,-0.05859 0.10254,-0.08789 0.0732,-0.04395 0.14649,-0.04395 0.14648,0.0293 0.20507,0.05859 0.0439,0.102539 0.0439,0.190429 0.0147,0.07324 0,0.161133 l -0.83496,3.193359 h 2.38769 l -0.17578,0.981446 h -2.49023 l -2.63672,9.858398 q -0.0732,0.263672 0.0439,0.512696 0.11718,0.234375 0.3955,0.234375 0.38086,0 1.06934,-0.761719 0.39551,-0.410156 1.33301,-1.625977 l 0.38086,0.219727 -0.20508,0.307617 q -1.25977,1.889648 -2.22656,2.636719 -0.95215,0.732422 -1.81641,0.732422 -0.74707,0 -1.08399,-0.395508 -0.33691,-0.395508 -0.33691,-0.893555 z" />
                        <path d="m 274.69629,21.356445 q 0.9375,-0.131836 1.50879,-0.205078 0.58594,-0.08789 1.01074,-0.161133 1.72852,-0.336914 1.86035,-0.366211 0.13184,-0.0293 0.20508,-0.0293 0.17578,0.08789 0.17578,0.219726 l -3.44238,13.081055 q 1.8457,-2.72461 3.01758,-3.984375 2.05078,-2.167969 3.76464,-2.167969 0.70313,0 1.34766,0.454102 0.65918,0.439453 0.65918,1.596679 0,0.278321 -0.0732,0.717774 -0.0732,0.439453 -0.17578,0.776367 l -1.97754,7.016601 q -0.0879,0.292969 -0.14649,0.57129 -0.0586,0.263671 -0.0586,0.483398 0,0.249023 0.11719,0.380859 0.11719,0.117188 0.33691,0.117188 0.4541,0 1.06934,-0.629883 0.38086,-0.395508 1.4209,-1.728516 l 0.38086,0.351563 q -1.0254,1.523437 -1.74317,2.226562 -1.27441,1.245118 -2.56348,1.245118 -0.58593,0 -0.98144,-0.366211 -0.39551,-0.366211 -0.39551,-1.054688 0,-0.19043 0.0147,-0.351562 0.0293,-0.175782 0.0879,-0.38086 l 2.25586,-8.583984 q 0.0293,-0.117188 0.0439,-0.234375 0.0293,-0.131836 0.0293,-0.263672 0,-0.366211 -0.21972,-0.571289 -0.23438,-0.205078 -0.60059,-0.205078 -0.98145,0 -2.47559,1.582031 -1.49414,1.567383 -2.51953,3.208008 -0.70312,1.157226 -1.06933,2.182617 Q 275.20898,37.308594 274.18359,41 h -2.2705 l 4.6875,-17.768555 q 0.0439,-0.190429 0.0586,-0.322265 0.0147,-0.131836 0.0147,-0.249024 0,-0.629883 -0.41016,-0.74707 -0.41015,-0.131836 -1.56738,-0.07324 z" />
                     </g>
                  </g>
               </g>
            </g>
         </g>
      </g>
   </svg>
</svg>
